<svg width="66" height="66" viewBox="0 0 66 66" fill="none" xmlns="http://www.w3.org/2000/svg">
<path d="M7.69999 35.992C7.0781 33.9474 6.70869 31.8344 6.59999 29.7C6.59999 29.307 6.39034 28.9439 6.04999 28.7474C5.70965 28.5509 5.29034 28.5509 4.94999 28.7474C4.60965 28.9439 4.39999 29.307 4.39999 29.7C4.48344 32.0245 4.85289 34.3299 5.49999 36.564C5.65795 37.1715 6.27848 37.536 6.88599 37.378C7.49351 37.2201 7.85795 36.5995 7.69999 35.992V35.992Z" fill="#D0AE5F"/>
<path d="M9.29499 40.216C9.14071 39.8337 8.78559 39.5697 8.37502 39.5322C7.96445 39.4947 7.56737 39.6899 7.34635 40.0379C7.12532 40.3859 7.11746 40.8283 7.32599 41.184C7.81785 42.191 8.36881 43.168 8.97599 44.11C9.31012 44.6203 9.99468 44.7631 10.505 44.429C11.0153 44.0949 11.1581 43.4103 10.824 42.9C10.2617 42.0363 9.75118 41.1401 9.29499 40.216V40.216Z" fill="#D0AE5F"/>
<path d="M65.032 5.632C65.9746 4.68826 66.2563 3.26989 65.7461 2.03754C65.2358 0.805178 64.0338 0.00117319 62.7 0C61.8251 0.000770231 60.9863 0.348953 60.368 0.968L49.709 11.627C42.9282 14.2684 36.7755 18.3002 31.647 23.463C31.4196 23.6956 31.2066 23.9417 31.009 24.2H3.3C1.47746 24.2 0 25.6775 0 27.5V28.6C0.00199089 42.5831 8.81659 55.047 22 59.708V62.7C22 64.5225 23.4775 66 25.3 66H40.7C42.5225 66 44 64.5225 44 62.7V59.708C57.1834 55.047 65.998 42.5831 66 28.6V27.5C66 25.6775 64.5225 24.2 62.7 24.2H50.468C52.0132 21.6911 53.3205 19.0432 54.373 16.291L65.032 5.632ZM61.919 2.519C62.2337 2.20169 62.7091 2.10632 63.1218 2.27769C63.5346 2.44906 63.8026 2.85311 63.8 3.3C63.7959 3.59124 63.682 3.8702 63.481 4.081L53.416 14.135L51.865 12.584L61.919 2.519ZM50.028 13.86L50.314 14.135L40.249 24.2H34.1C38.7216 19.7946 44.1229 16.2882 50.028 13.86V13.86ZM41.8 62.7C41.8 63.3075 41.3075 63.8 40.7 63.8H25.3C24.6925 63.8 24.2 63.3075 24.2 62.7V60.401C29.9585 61.9943 36.0415 61.9943 41.8 60.401V62.7ZM63.8 27.5V28.6C63.8 45.6104 50.0104 59.4 33 59.4C15.9896 59.4 2.2 45.6104 2.2 28.6V27.5C2.2 26.8925 2.69249 26.4 3.3 26.4H17.6V27.5C17.6 29.3225 19.0775 30.8 20.9 30.8H36.3C36.9075 30.8 37.4 31.2925 37.4 31.9V45.1C37.4 46.9225 38.8775 48.4 40.7 48.4C42.5225 48.4 44 46.9225 44 45.1V31.9C44 31.2925 44.4925 30.8 45.1 30.8C45.7075 30.8 46.2 31.2925 46.2 31.9V38.5C46.2 40.3225 47.6775 41.8 49.5 41.8C51.3225 41.8 52.8 40.3225 52.8 38.5V31.9C52.8 31.2925 53.2925 30.8 53.9 30.8C55.7225 30.8 57.2 29.3225 57.2 27.5V26.4H62.7C63.3075 26.4 63.8 26.8925 63.8 27.5ZM55 27.5C55 28.1075 54.5075 28.6 53.9 28.6C52.0775 28.6 50.6 30.0775 50.6 31.9V38.5C50.6 39.1075 50.1075 39.6 49.5 39.6C48.8925 39.6 48.4 39.1075 48.4 38.5V31.9C48.4 30.0775 46.9225 28.6 45.1 28.6C43.2775 28.6 41.8 30.0775 41.8 31.9V45.1C41.8 45.7075 41.3075 46.2 40.7 46.2C40.0925 46.2 39.6 45.7075 39.6 45.1V31.9C39.6 30.0775 38.1225 28.6 36.3 28.6H20.9C20.2925 28.6 19.8 28.1075 19.8 27.5V26.4H55V27.5ZM43.351 24.2L51.865 15.686L52.14 15.972C50.9855 18.8456 49.5562 21.6011 47.872 24.2H43.351Z" fill="#D0AE5F"/>
</svg>
