<svg width="65" height="66" viewBox="0 0 65 66" fill="none" xmlns="http://www.w3.org/2000/svg">
<path d="M61.123 33.5681C63.5209 31.9327 64.9621 29.2948 64.9621 26.4004V25.3004C64.9621 20.4472 60.8791 16.5004 55.8585 16.5004H51.3069V11H51.3073C53.1895 11 54.7211 9.51934 54.7211 7.69996V6.6C54.7211 4.78062 53.1895 3.3 51.3073 3.3H35.3763C33.4941 3.3 31.9625 4.78062 31.9625 6.6V7.69996C31.9625 9.51921 33.4939 10.9998 35.3759 11V26.7024C26.4942 29.9068 20.5827 38.0852 20.5827 47.3C20.5827 54.8261 24.5143 61.7518 31.0985 65.8261C31.2817 65.9394 31.4945 65.9999 31.7118 65.9999H54.9724C55.1885 65.9999 55.4026 65.9394 55.5857 65.8261C62.1698 61.7518 66.1002 54.8261 66.1002 47.3C66.1002 42.1766 64.2724 37.374 61.123 33.5681ZM55.8586 18.7004C59.6241 18.7004 62.6863 21.6605 62.6863 25.3004V26.4004C62.6863 28.6503 61.5233 30.6935 59.6018 31.9076C58.9013 31.2172 58.152 30.5699 57.3579 29.9708C58.5188 29.1723 59.2726 27.8646 59.2726 26.4004V25.3004C59.2726 22.8738 57.2311 20.9005 54.7209 20.9005H51.3072V18.7004H55.8586ZM51.3071 23.1004H54.7207C55.9759 23.1004 56.9967 24.087 56.9967 25.3004V26.4004C56.9967 27.4376 56.2339 28.3168 55.206 28.533C53.9848 27.8136 52.6815 27.1983 51.3071 26.7025V23.1004ZM34.2384 7.69996V6.6C34.2384 5.99388 34.7493 5.50004 35.3763 5.50004H51.3075C51.9345 5.50004 52.4454 5.99388 52.4454 6.6V7.69996C52.4454 8.30607 51.9345 8.79991 51.3075 8.79991H50.1692H36.5139H35.3763C34.7493 8.80004 34.2384 8.30607 34.2384 7.69996ZM36.8734 28.5241C37.3388 28.3745 37.6518 27.9543 37.6518 27.4802V11H49.0311V17.5961C49.0311 17.5975 49.0309 17.5989 49.0309 17.6005C49.0309 17.602 49.0311 17.6033 49.0311 17.6049V21.9984C49.0311 21.9991 49.031 21.9998 49.031 22.0006C49.031 22.0013 49.0311 22.002 49.0311 22.0027V27.4804C49.0311 27.9545 49.3452 28.3747 49.8095 28.5242C51.3712 29.0269 52.8371 29.6979 54.1892 30.512C54.2725 30.5815 54.3662 30.6392 54.4676 30.6832C55.9234 31.5914 57.242 32.6677 58.3998 33.8797C58.475 33.9975 58.5694 34.0974 58.6785 34.1773C60.0219 35.6422 61.1355 37.2946 61.9791 39.0809C59.4989 39.1117 57.2367 40.096 54.9669 42.1226C52.1084 44.8868 50.3595 44.5095 44.7847 41.8784C38.6318 38.2572 32.1251 35.9208 26.2067 43.2722C25.3621 44.3289 24.2658 45.1017 22.9364 45.5801C23.6358 37.767 29.0597 31.0395 36.8734 28.5241ZM54.6345 63.8H32.0497C26.465 60.2237 23.0712 54.3415 22.8684 47.9117C24.9879 47.3425 26.7129 46.2371 28.0044 44.6205C32.5721 38.9479 37.3571 40.083 43.6921 43.8054C49.16 46.3904 52.4554 47.6609 56.5429 43.7086C58.6564 41.8247 60.5842 41.0881 62.8696 41.3177C63.4919 43.217 63.8244 45.2292 63.8244 47.3001C63.8244 53.9671 60.3958 60.1107 54.6345 63.8Z" fill="#D0AE5F"/>
<path d="M17.1693 26.4H14.8934H10.3417V24.2H11.4801C14.6163 24.2 17.1698 21.7327 17.1698 18.6999C17.1698 18.0928 16.66 17.6 16.0319 17.6H13.756C12.476 17.6 11.2934 18.011 10.3418 18.7033V15.3999H11.4802C14.6164 15.3999 17.17 12.9326 17.17 9.89987C17.17 9.29272 16.6602 8.79991 16.0321 8.79991H13.7562C12.4761 8.79991 11.2935 9.211 10.3419 9.90322V6.6H11.4804C14.6165 6.6 17.1701 4.13273 17.1701 1.09996C17.1701 0.492809 16.6603 0 16.0322 0H13.7563C11.8966 0 10.2429 0.866766 9.20391 2.20404C8.16483 0.866766 6.51099 0 4.65233 0H2.37654C1.74725 0 1.23865 0.492809 1.23865 1.09996C1.23865 4.13261 3.79101 6.6 6.92839 6.6H8.06588V9.90309C7.11415 9.211 5.93198 8.80004 4.65246 8.80004H2.37654C1.74725 8.80004 1.23865 9.29285 1.23865 9.9C1.23865 12.9326 3.79101 15.4 6.92839 15.4H8.06588V18.7031C7.11415 18.011 5.93198 17.6001 4.65246 17.6001H2.37654C1.74725 17.6001 1.23865 18.0929 1.23865 18.7C1.23865 21.7327 3.79101 24.2001 6.92839 24.2001H8.06588V26.4H3.51404H1.23811C0.610025 26.4 0.10022 26.8928 0.10022 27.5C0.10022 28.1071 0.610025 28.5999 1.23811 28.5999H2.37601V62.7C2.37601 64.5194 3.90769 66 5.78982 66H12.6175C14.4996 66 16.0313 64.5194 16.0313 62.7V28.6H17.1692C17.7973 28.6 18.3071 28.1072 18.3071 27.5001C18.3072 26.8928 17.7974 26.4 17.1693 26.4ZM6.92825 13.2C5.44431 13.2 4.17893 12.2804 3.709 11H4.65233C6.13507 11 7.40165 11.9196 7.87039 13.2H6.92825ZM6.92825 22C5.44431 22 4.17893 21.0804 3.709 19.8H4.65233C6.13507 19.8 7.40165 20.7196 7.87039 22H6.92825ZM13.7559 19.8H14.6982C14.2293 21.0804 12.9628 22 11.4801 22H10.5368C11.0066 20.7196 12.2721 19.8 13.7559 19.8ZM13.7559 11H14.6982C14.2293 12.2804 12.9628 13.2 11.4801 13.2H10.5368C11.0066 11.9196 12.2721 11 13.7559 11ZM13.7559 2.20004H14.6982C14.2293 3.48047 12.9628 4.40009 11.4801 4.40009H10.5368C11.0066 3.11966 12.2721 2.20004 13.7559 2.20004ZM6.92825 4.39996C5.44431 4.39996 4.17893 3.48034 3.709 2.19991H4.65233C6.13507 2.19991 7.40165 3.11953 7.87039 4.39996H6.92825ZM12.6175 63.8H5.78982C5.1628 63.8 4.65193 63.3061 4.65193 62.7V48.3357C5.1424 48.3797 5.62327 48.4022 6.0932 48.4022C9.18671 48.4022 11.8187 47.4525 13.7554 45.6229V62.7C13.7555 63.3061 13.2445 63.8 12.6175 63.8ZM13.7555 42.2284C13.4149 42.6011 13.1198 42.9535 12.8515 43.3071C10.5941 46.1325 7.0504 46.3664 4.65193 46.1239V28.6H8.06575V38.5C8.06575 39.1072 8.57555 39.6 9.20364 39.6C9.83173 39.6 10.3415 39.1072 10.3415 38.5V28.6H13.7554V42.2284H13.7555Z" fill="#D0AE5F"/>
</svg>
