<svg width="16" height="16" viewBox="0 0 16 16" fill="none" xmlns="http://www.w3.org/2000/svg">
<g clip-path="url(#clip0_9_2)">
<path d="M11.5666 -1.43051e-06H4.43338C3.83909 -1.43051e-06 3.35269 0.485941 3.35269 1.08068V14.9189C3.35269 15.5136 3.83909 16 4.43338 16H11.5666C12.1609 16 12.6473 15.5145 12.6473 14.9193V1.08068C12.6473 0.485941 12.1609 -1.43051e-06 11.5666 -1.43051e-06ZM6.85898 0.77897H9.14103C9.21326 0.77897 9.27178 0.837484 9.27178 0.91017C9.27178 0.982399 9.21326 1.04091 9.14103 1.04091H6.85898C6.78675 1.04091 6.72823 0.982399 6.72823 0.91017C6.72823 0.837484 6.78675 0.77897 6.85898 0.77897ZM8.00001 15.4597C7.70149 15.4597 7.45966 15.2178 7.45966 14.9189C7.45966 14.6199 7.70149 14.3785 8.00001 14.3785C8.29852 14.3785 8.54035 14.6199 8.54035 14.9189C8.54035 15.2178 8.29852 15.4597 8.00001 15.4597ZM11.8953 14H4.10469V1.71383H11.8953V14Z" fill="#AAA6A6"/>
</g>
<defs>
<clipPath id="clip0_9_2">
<rect width="16" height="16" fill="white"/>
</clipPath>
</defs>
</svg>
