<svg width="66" height="66" viewBox="0 0 66 66" fill="none" xmlns="http://www.w3.org/2000/svg">
<g clip-path="url(#clip0_5_76)">
<path d="M19.1542 30.458H18.4312V24.5953C18.4312 23.9005 17.868 23.3372 17.173 23.3372H17.065V11.3427C17.065 10.8663 16.7959 10.4306 16.3695 10.2174L6.63302 5.34785C6.24316 5.15292 5.77999 5.17355 5.40891 5.40287C5.03784 5.63203 4.81204 6.03699 4.81204 6.47315V23.3372H4.70401C4.009 23.3372 3.44585 23.9005 3.44585 24.5953V30.458H2.72165C2.02665 30.458 1.46349 31.0213 1.46349 31.7162V64.7418C1.46349 65.4367 2.02665 66 2.72165 66H19.1539C19.8489 66 20.412 65.4367 20.412 64.7418V31.7162C20.4124 31.0213 19.8492 30.458 19.1542 30.458ZM7.3287 8.50918L14.5488 12.1203V23.3372H7.3287V8.50918V8.50918ZM5.96267 25.8535H15.915V30.458H5.96267V25.8535ZM17.8961 63.4837H3.98015V32.9743H17.8961V63.4837V63.4837Z" fill="#D0AE5F"/>
<path d="M63.2779 51.0437H22.4122C21.7172 51.0437 21.154 51.607 21.154 52.3018C21.154 52.9967 21.7172 53.56 22.4122 53.56H61.276L60.9883 54.158C59.4079 57.442 56.0319 59.5641 52.3874 59.5641H22.4122C21.7172 59.5641 21.154 60.1274 21.154 60.8223C21.154 61.5171 21.7172 62.0804 22.4122 62.0804H52.3874C56.9928 62.0804 61.2589 59.399 63.2557 55.2491L64.4115 52.8474C64.5993 52.4575 64.5734 51.9985 64.3431 51.6323C64.1128 51.2661 63.7105 51.0437 63.2779 51.0437Z" fill="#D0AE5F"/>
<path d="M19.5072 9.25149C24.1984 4.90833 30.3054 2.51632 36.7034 2.51632C50.6629 2.51632 62.0199 13.8733 62.0199 27.8328C62.0199 35.3588 58.7035 42.4453 52.9215 47.2751C52.3881 47.7206 52.3169 48.5139 52.7625 49.0472C53.0113 49.3452 53.3686 49.4988 53.7288 49.4988C54.0131 49.4988 54.2993 49.4029 54.5347 49.2063C60.891 43.897 64.5363 36.1066 64.5363 27.8327C64.5362 12.4858 52.0504 0 36.7034 0C29.6696 0 22.9555 2.62989 17.7976 7.40519C17.2878 7.87725 17.2571 8.67324 17.7291 9.18322C18.201 9.69286 18.997 9.72356 19.5072 9.25149Z" fill="#D0AE5F"/>
<path d="M36.7027 7.74925C47.7772 7.74925 56.7869 16.759 56.7869 27.8335C56.7869 38.908 47.7772 47.9177 36.7027 47.9177C31.7239 47.9177 26.9483 46.0828 23.255 42.7514C22.7393 42.2861 21.9436 42.3268 21.478 42.8428C21.0126 43.3587 21.0535 44.1543 21.5695 44.6197C25.7258 48.3692 31.1002 50.4341 36.7027 50.4341C49.1647 50.4341 59.3033 40.2955 59.3033 27.8335C59.3033 15.3715 49.1647 5.23293 36.7027 5.23293C29.5454 5.23293 22.7366 8.67861 18.4892 14.4502C18.0772 15.0098 18.1972 15.7974 18.7568 16.2093C19.3164 16.6209 20.1037 16.5013 20.5159 15.9417C24.291 10.8119 30.3423 7.74925 36.7027 7.74925Z" fill="#D0AE5F"/>
<path d="M50.5439 17.9219L27.5837 40.8821C27.0924 41.3735 27.0924 42.1701 27.5837 42.6613C27.8295 42.9069 28.1516 43.0299 28.4735 43.0299C28.7954 43.0299 29.1175 42.9071 29.3633 42.6613L52.3233 19.7011C52.8147 19.2097 52.8147 18.4131 52.3233 17.9219C51.8318 17.4305 51.0353 17.4305 50.5439 17.9219Z" fill="#D0AE5F"/>
<path d="M34.5754 41.0375C34.084 41.5288 34.084 42.3255 34.5754 42.8167C34.8211 43.0623 35.1432 43.1852 35.4652 43.1852C35.7871 43.1852 36.1092 43.0624 36.3549 42.8167L53.5934 25.5782C54.0847 25.0869 54.0847 24.2902 53.5934 23.799C53.1019 23.3077 52.3054 23.3077 51.814 23.799L34.5754 41.0375Z" fill="#D0AE5F"/>
</g>
<defs>
<clipPath id="clip0_5_76">
<rect width="66" height="66" fill="white"/>
</clipPath>
</defs>
</svg>
