<svg width="66" height="66" viewBox="0 0 66 66" fill="none" xmlns="http://www.w3.org/2000/svg">
<g clip-path="url(#clip0_5_71)">
<path d="M65.0325 63.7461C62.6234 63.7461 60.6459 61.8681 60.4837 59.4995C63.2525 58.1978 65.1747 55.3829 65.1747 52.1263C65.1747 47.6359 61.5215 43.9828 57.0311 43.9828C54.9274 43.9828 53.0074 44.7847 51.5608 46.0989L45.2536 35.1747C45.5952 34.762 46.1372 34.1426 46.7896 33.5229C48.1492 32.2318 49.4131 31.4923 50.3484 31.4404C50.6571 31.4233 50.9391 31.2595 51.107 31C52.8953 28.2362 64.8522 2.93684 65.3603 1.86108C65.5802 1.39553 65.3972 0.839351 64.9436 0.595528C64.49 0.352028 63.9254 0.505868 63.658 0.946104L44.0864 33.2217L24.5147 0.945943C24.2476 0.505868 23.6829 0.351705 23.2291 0.595367C22.7755 0.839189 22.5925 1.39537 22.8124 1.86092C23.3204 2.93668 35.2774 28.2362 37.0657 30.9998C37.2336 31.2593 37.5156 31.4231 37.8243 31.4402C38.7597 31.4922 40.0237 32.2317 41.3831 33.5227C42.0356 34.1424 42.5775 34.7618 42.9191 35.1745L36.6119 46.0988C35.1653 44.7847 33.2454 43.9826 31.1416 43.9826C26.6512 43.9826 22.998 47.6357 22.998 52.1261C22.998 56.6165 26.6512 60.2697 31.1416 60.2697C35.632 60.2697 39.2851 56.6165 39.2851 52.1261C39.2851 50.4774 38.7912 48.9427 37.9457 47.6591L44.0866 37.0228L50.2275 47.6591C49.382 48.9427 48.8881 50.4776 48.8881 52.1261C48.8881 56.6165 52.5412 60.2697 57.0316 60.2697C57.5697 60.2697 58.0954 60.2158 58.6047 60.1158C59.0577 63.2583 61.7671 65.681 65.0329 65.681C65.5672 65.681 66.0005 65.2477 66.0005 64.7135C66.0005 64.1792 65.5669 63.7461 65.0325 63.7461ZM55.1913 18.6407C52.7281 23.7177 50.5808 28.0488 49.7077 29.5735C49.219 29.6649 48.7329 29.8401 48.2596 30.072L55.1913 18.6407ZM38.465 29.5735C37.5919 28.0488 35.4448 23.7177 32.9814 18.6407L39.9131 30.072C39.4398 29.8401 38.9539 29.6649 38.465 29.5735ZM31.1414 58.3347C27.7181 58.3347 24.933 55.5497 24.933 52.1263C24.933 48.7029 27.7181 45.9179 31.1414 45.9179C34.5648 45.9179 37.3499 48.7029 37.3499 52.1263C37.3499 55.5497 34.5648 58.3347 31.1414 58.3347ZM50.8228 52.1263C50.8228 48.7029 53.6079 45.9179 57.0313 45.9179C60.4546 45.9179 63.2397 48.7029 63.2397 52.1263C63.2397 55.5497 60.4546 58.3347 57.0313 58.3347C53.6079 58.3347 50.8228 55.5497 50.8228 52.1263Z" fill="#D0AE5F"/>
<path d="M17.3803 2.25407C17.9145 2.25407 18.3478 1.82077 18.3478 1.28652C18.3478 0.752271 17.9145 0.31897 17.3803 0.31897H4.55184C2.04185 0.31897 -5.72205e-06 2.36082 -5.72205e-06 4.87065V56.3695C-5.72205e-06 58.8792 2.04185 60.9212 4.55184 60.9212H17.3804C17.9147 60.9212 18.348 60.4879 18.348 59.9536C18.348 59.4194 17.9147 58.9861 17.3804 58.9861H5.51939V57.1672H17.3804C17.9147 57.1672 18.348 56.7339 18.348 56.1997C18.348 55.6654 17.9147 55.2321 17.3804 55.2321H5.51939V53.232H17.3804C17.9147 53.232 18.348 52.7987 18.348 52.2645C18.348 51.7302 17.9147 51.2969 17.3804 51.2969H5.51939V49.2967H17.3804C17.9147 49.2967 18.348 48.8634 18.348 48.3291C18.348 47.7949 17.9147 47.3616 17.3804 47.3616H5.51939V45.3615H17.3804C17.9147 45.3615 18.348 44.9282 18.348 44.394C18.348 43.8597 17.9147 43.4264 17.3804 43.4264H5.51939V41.4263H17.3804C17.9147 41.4263 18.348 40.993 18.348 40.4588C18.348 39.9245 17.9147 39.4912 17.3804 39.4912H5.51939V37.491H17.3804C17.9147 37.491 18.348 37.0577 18.348 36.5234C18.348 35.9892 17.9147 35.5559 17.3804 35.5559H5.51939V33.5558H17.3804C17.9147 33.5558 18.348 33.1225 18.348 32.5882C18.348 32.054 17.9147 31.6207 17.3804 31.6207H5.51939V29.6199H17.3804C17.9147 29.6199 18.348 29.1866 18.348 28.6524C18.348 28.1181 17.9147 27.6848 17.3804 27.6848H5.51939V25.6848H17.3804C17.9147 25.6848 18.348 25.2515 18.348 24.7172C18.348 24.183 17.9147 23.7497 17.3804 23.7497H5.51939V21.7494H17.3804C17.9147 21.7494 18.348 21.3161 18.348 20.7819C18.348 20.2476 17.9147 19.8143 17.3804 19.8143H5.51939V17.8142H17.3804C17.9147 17.8142 18.348 17.3809 18.348 16.8467C18.348 16.3124 17.9147 15.8791 17.3804 15.8791H5.51939V13.8785H17.3804C17.9147 13.8785 18.348 13.4452 18.348 12.911C18.348 12.3767 17.9147 11.9434 17.3804 11.9434H5.51939V9.94335H17.3804C17.9147 9.94335 18.348 9.51005 18.348 8.9758C18.348 8.44156 17.9147 8.00825 17.3804 8.00825H5.51939V6.008H17.3804C17.9147 6.008 18.348 5.5747 18.348 5.04045C18.348 4.50621 17.9147 4.0729 17.3804 4.0729H5.51939V2.25407H17.3803ZM1.9351 56.3695V4.87065C1.9351 3.76974 2.61931 2.82734 3.58428 2.44161V58.7984C2.61931 58.4126 1.9351 57.4702 1.9351 56.3695Z" fill="#D0AE5F"/>
</g>
<defs>
<clipPath id="clip0_5_71">
<rect width="66" height="66" fill="white"/>
</clipPath>
</defs>
</svg>
