<svg width="67" height="67" viewBox="0 0 67 67" fill="none" xmlns="http://www.w3.org/2000/svg">
<path d="M64.9168 31.4995C60.9619 31.3482 57.0921 31.9841 53.4562 33.343C53.3839 29.0951 52.6037 24.9309 51.1291 20.9387C50.8881 20.2868 50.2106 19.9718 49.6135 20.235C47.3102 21.253 45.1531 22.5387 43.1588 24.076C40.7648 18.9108 37.6433 14.204 33.8622 10.0695C33.4074 9.57229 32.6706 9.57229 32.2162 10.0696C28.4335 14.2075 25.3123 18.9137 22.92 24.074C20.9269 22.5377 18.7707 21.2526 16.468 20.235C15.8716 19.9716 15.1935 20.2867 14.9526 20.9387C13.4755 24.9374 12.695 29.1085 12.6247 33.3636C9.03842 32.0154 5.17369 31.3466 1.16407 31.4995C0.52147 31.5242 0.0188659 32.1137 0.0412956 32.8165C0.6429 51.6601 14.8472 66.5409 31.9518 66.5409C32.3129 66.5409 32.6771 66.5337 33.0406 66.5205C33.405 66.5339 33.7675 66.5409 34.1294 66.5409C51.2326 66.5409 65.4384 51.6591 66.0399 32.8165C66.062 32.1137 65.5594 31.524 64.9168 31.4995ZM16.6878 23.1064C19.968 24.7216 22.9075 26.9397 25.4394 29.7123C28.1575 32.6839 30.2892 36.1568 31.7846 40.0388C30.787 42.8577 30.1326 45.7713 29.8275 48.7436C26.3959 42.3697 21.1731 37.3046 14.9493 34.3497C14.9111 30.5106 15.4945 26.7379 16.6878 23.1064ZM2.43302 34.0248C9.9035 34.0598 16.9822 37.123 22.4771 42.7284C27.9724 48.3339 31.2599 55.8436 31.8125 63.9938C16.4124 63.9146 3.57938 50.8242 2.43302 34.0248ZM27.0858 27.9117C26.3558 27.1123 25.5937 26.3568 24.8023 25.6438C26.9346 20.9404 29.6999 16.6259 33.0395 12.7928C36.3774 16.6233 39.1425 20.938 41.2764 25.6458C40.4858 26.358 39.7244 27.1126 38.9949 27.9111C36.5672 30.5653 34.5721 33.5926 33.0403 36.9353C31.5098 33.5943 29.5149 30.5671 27.0858 27.9117ZM33.0358 56.9777C32.7331 55.7983 32.3758 54.6448 31.9664 53.5206C31.9588 53.2486 31.9549 52.9611 31.9549 52.6458C31.9549 48.4723 32.6833 44.3859 34.1194 40.4996C35.6237 36.4277 37.8178 32.7983 40.6413 29.7118C43.1743 26.9393 46.1142 24.7214 49.3941 23.1064C50.5846 26.73 51.1677 30.4941 51.1324 34.3244C47.8168 35.8934 44.7366 38.0905 42.0163 40.8655C37.6616 45.3074 34.5943 50.8591 33.0358 56.9777ZM34.2685 63.9937C34.8213 55.8435 38.1084 48.3339 43.6038 42.7282C49.0992 37.1225 56.1768 34.0592 63.648 34.0247C62.5014 50.8252 49.67 63.9161 34.2685 63.9937Z" fill="#D0AE5F"/>
<path d="M1.85655 27.7788C2.49949 27.7788 3.0207 27.2087 3.0207 26.5054C3.0207 25.8021 2.49949 25.2319 1.85655 25.2319C1.21361 25.2319 0.692398 25.8021 0.692398 26.5054C0.692398 27.2087 1.21361 27.7788 1.85655 27.7788Z" fill="#D0AE5F"/>
<path d="M16.0323 13.6407C16.6753 13.6407 17.1965 13.0705 17.1965 12.3672C17.1965 11.6639 16.6753 11.0938 16.0323 11.0938C15.3894 11.0938 14.8682 11.6639 14.8682 12.3672C14.8682 13.0705 15.3894 13.6407 16.0323 13.6407Z" fill="#D0AE5F"/>
<path d="M33.0394 3.08774C33.6824 3.08774 34.2036 2.5176 34.2036 1.8143C34.2036 1.111 33.6824 0.540855 33.0394 0.540855C32.3965 0.540855 31.8753 1.111 31.8753 1.8143C31.8753 2.5176 32.3965 3.08774 33.0394 3.08774Z" fill="#D0AE5F"/>
<path d="M50.0495 13.6407C50.6924 13.6407 51.2136 13.0705 51.2136 12.3672C51.2136 11.6639 50.6924 11.0938 50.0495 11.0938C49.4065 11.0938 48.8853 11.6639 48.8853 12.3672C48.8853 13.0705 49.4065 13.6407 50.0495 13.6407Z" fill="#D0AE5F"/>
<path d="M64.2223 27.7788C64.8652 27.7788 65.3864 27.2087 65.3864 26.5054C65.3864 25.8021 64.8652 25.2319 64.2223 25.2319C63.5794 25.2319 63.0581 25.8021 63.0581 26.5054C63.0581 27.2087 63.5794 27.7788 64.2223 27.7788Z" fill="#D0AE5F"/>
</svg>
