<svg width="16" height="16" viewBox="0 0 16 16" fill="none" xmlns="http://www.w3.org/2000/svg">
<path d="M8 2.6087C8.1913 2.6087 8.34783 2.45218 8.34783 2.26087V2.08696C8.34783 1.89566 8.1913 1.73914 8 1.73914C7.8087 1.73914 7.65217 1.89566 7.65217 2.08696V2.26087C7.65217 2.45218 7.8087 2.6087 8 2.6087Z" fill="#AAA6A6"/>
<path d="M8 13.3913C7.8087 13.3913 7.65217 13.5478 7.65217 13.7391V13.913C7.65217 14.1043 7.8087 14.2609 8 14.2609C8.1913 14.2609 8.34783 14.1043 8.34783 13.913V13.7391C8.34783 13.5478 8.1913 13.3913 8 13.3913Z" fill="#AAA6A6"/>
<path d="M2.26087 7.65216H2.08696C1.89565 7.65216 1.73913 7.80868 1.73913 7.99999C1.73913 8.19129 1.89565 8.34781 2.08696 8.34781H2.26087C2.45217 8.34781 2.6087 8.19129 2.6087 7.99999C2.6087 7.80868 2.45217 7.65216 2.26087 7.65216Z" fill="#AAA6A6"/>
<path d="M13.913 7.65216H13.7391C13.5478 7.65216 13.3913 7.80868 13.3913 7.99999C13.3913 8.19129 13.5478 8.34781 13.7391 8.34781H13.913C14.1043 8.34781 14.2609 8.19129 14.2609 7.99999C14.2609 7.80868 14.1043 7.65216 13.913 7.65216Z" fill="#AAA6A6"/>
<path d="M4.06957 3.58262C3.93043 3.44349 3.72174 3.44349 3.58261 3.58262C3.44348 3.72175 3.44348 3.93045 3.58261 4.06958L3.70435 4.19131C3.77391 4.26088 3.86087 4.29566 3.94783 4.29566C4.03478 4.29566 4.12174 4.26088 4.1913 4.19131C4.33043 4.05218 4.33043 3.84349 4.1913 3.70436L4.06957 3.58262Z" fill="#AAA6A6"/>
<path d="M3.70435 11.8087L3.58261 11.9304C3.44348 12.0696 3.44348 12.2783 3.58261 12.4174C3.65217 12.487 3.73913 12.5217 3.82609 12.5217C3.91304 12.5217 4 12.487 4.06957 12.4174L4.1913 12.2956C4.33043 12.1565 4.33043 11.9478 4.1913 11.8087C4.05217 11.6696 3.84348 11.6696 3.70435 11.8087Z" fill="#AAA6A6"/>
<path d="M11.9304 3.58262L11.8087 3.70436C11.6696 3.84349 11.6696 4.05218 11.8087 4.19131C11.8783 4.26088 11.9652 4.29566 12.0522 4.29566C12.1391 4.29566 12.2261 4.26088 12.2957 4.19131L12.4174 4.06958C12.5565 3.93045 12.5565 3.72175 12.4174 3.58262C12.2783 3.44349 12.0696 3.44349 11.9304 3.58262Z" fill="#AAA6A6"/>
<path d="M8.34783 7.86088V4.69567C8.34783 4.50436 8.1913 4.34784 8 4.34784C7.8087 4.34784 7.65217 4.50436 7.65217 4.69567V8.00001C7.65217 8.08697 7.68696 8.17393 7.75652 8.24349L11.5652 12.0522C11.6348 12.1218 11.7217 12.1565 11.8087 12.1565C11.8957 12.1565 11.9826 12.1218 12.0522 12.0522C12.1913 11.9131 12.1913 11.7044 12.0522 11.5652L8.34783 7.86088Z" fill="#AAA6A6"/>
<path d="M8 0C3.58261 0 0 3.58261 0 8C0 12.4174 3.58261 16 8 16C12.4174 16 16 12.4174 16 8C16 3.58261 12.4174 0 8 0ZM8 15.3043C3.96522 15.3043 0.695652 12.0348 0.695652 8C0.695652 3.96522 3.96522 0.695652 8 0.695652C12.0348 0.695652 15.3043 3.96522 15.3043 8C15.3043 12.0348 12.0348 15.3043 8 15.3043Z" fill="#AAA6A6"/>
</svg>
