<svg width="66" height="66" viewBox="0 0 66 66" fill="none" xmlns="http://www.w3.org/2000/svg">
<g clip-path="url(#clip0_5_35)">
<path d="M51.5426 28.4308L49.2207 26.4408C48.0015 25.3956 47.3 23.8697 47.3 22.2643V22C47.9075 22 48.4 21.5075 48.4 20.9V16.5C48.4 14.6776 46.9224 13.2 45.1 13.2H40.7C38.8776 13.2 37.4 14.6776 37.4 16.5V20.9C37.4 21.5075 37.8925 22 38.5 22V22.2643C38.5011 23.8713 37.7991 25.3983 36.5782 26.444L34.2584 28.434C32.0633 30.3128 30.7995 33.0585 30.8 35.9482V58.3C30.8048 62.5507 34.2493 65.9952 38.5 66H47.3C51.5507 65.9952 54.9952 62.5507 55 58.3V35.9482C55.0016 33.0575 53.7383 30.3107 51.5426 28.4308V28.4308ZM39.6 16.5C39.6 15.8925 40.0925 15.4 40.7 15.4H45.1C45.7075 15.4 46.2 15.8925 46.2 16.5V19.8H39.6V16.5ZM52.8 58.3C52.7962 61.3363 50.3363 63.7962 47.3 63.8H38.5C35.4643 63.7962 33.0038 61.3363 33 58.3V35.9482C32.9989 33.6999 33.9813 31.5632 35.6893 30.1018L38.0107 28.1107C39.7187 26.6487 40.7011 24.5121 40.7 22.2643V22H45.1V22.2643C45.1 24.5121 46.0818 26.6476 47.7882 28.1107L50.1118 30.1018C51.8192 31.5638 52.8011 33.6999 52.8 35.9482V58.3Z" fill="#D0AE5F"/>
<path d="M14.3 56.1C10.0493 56.0952 6.60483 52.6507 6.6 48.4V39.6C6.6 35.3472 10.0477 31.9 14.3 31.9C18.5528 31.9 22 35.3472 22 39.6V48.4C21.9952 52.6507 18.5507 56.0952 14.3 56.1ZM14.3 34.1C11.2643 34.1038 8.80376 36.5637 8.8 39.6V48.4C8.8 51.4373 11.2626 53.9 14.3 53.9C17.3379 53.9 19.8 51.4373 19.8 48.4V39.6C19.7962 36.5637 17.3363 34.1038 14.3 34.1Z" fill="#D0AE5F"/>
<path d="M42.9 52.8C39.2563 52.7962 36.3038 49.8437 36.3 46.2V44C36.3 40.3552 39.2552 37.4 42.9 37.4C46.5454 37.4 49.5 40.3552 49.5 44V46.2C49.4962 49.8437 46.5438 52.7962 42.9 52.8ZM42.9 39.6C40.4701 39.6 38.5 41.5701 38.5 44V46.2C38.5 48.6299 40.4701 50.6 42.9 50.6C45.3299 50.6 47.3 48.6299 47.3 46.2V44C47.3 41.5701 45.3299 39.6 42.9 39.6Z" fill="#D0AE5F"/>
<path d="M47.3 6.59998C45.4776 6.59998 44 5.1224 44 3.29998C44 1.47757 45.4776 -1.52588e-05 47.3 -1.52588e-05C49.1224 -1.52588e-05 50.6 1.47757 50.6 3.29998C50.6 5.1224 49.1224 6.59998 47.3 6.59998ZM47.3 2.19998C46.6925 2.19998 46.2 2.69251 46.2 3.29998C46.2 3.90746 46.6925 4.39998 47.3 4.39998C47.9075 4.39998 48.4 3.90746 48.4 3.29998C48.4 2.69251 47.9075 2.19998 47.3 2.19998Z" fill="#D0AE5F"/>
<path d="M52.8 15.4C50.3701 15.4 48.4 13.4299 48.4 11C48.4 8.57012 50.3701 6.6 52.8 6.6C55.2299 6.6 57.2 8.57012 57.2 11C57.2 13.4299 55.2299 15.4 52.8 15.4ZM52.8 8.8C51.5851 8.8 50.6 9.78506 50.6 11C50.6 12.2149 51.5851 13.2 52.8 13.2C54.0149 13.2 55 12.2149 55 11C55 9.78506 54.0149 8.8 52.8 8.8Z" fill="#D0AE5F"/>
<path d="M26.4 0H8.8C6.97759 0 5.5 1.47759 5.5 3.3C5.5 5.12241 6.97759 6.6 8.8 6.6H9.9V8.8H8.8C8.19253 8.8 7.7 9.29253 7.7 9.9V16.5C7.7 17.1075 8.19253 17.6 8.8 17.6V18.1806C8.80376 19.4315 8.09693 20.5761 6.97652 21.132L6.68916 21.2749C2.57867 23.3127 -0.015035 27.5102 4.01476e-06 32.0982V58.3C0.00483799 62.5507 3.44932 65.9952 7.7 66H20.9C25.1507 65.9952 28.5952 62.5507 28.6 58.3V32.0982C28.6156 27.5102 26.0213 23.3127 21.9108 21.2749L21.624 21.132C20.5036 20.5761 19.7962 19.4315 19.8 18.1806V17.6C20.4075 17.6 20.9 17.1075 20.9 16.5V9.9C20.9 9.29253 20.4075 8.8 19.8 8.8H18.7V6.6H26.4C27.0075 6.6 27.5 7.09253 27.5 7.7V9.9C27.5 10.5075 27.9925 11 28.6 11H33C33.6075 11 34.1 10.5075 34.1 9.9V7.7C34.0952 3.44932 30.6507 0.00483398 26.4 0ZM9.9 11H18.7V15.4H9.9V11ZM20.6406 23.1L20.9263 23.2429C24.2897 24.9101 26.4129 28.3443 26.4 32.0982V58.3C26.3962 61.3363 23.9363 63.7962 20.9 63.8H7.7C4.66426 63.7962 2.20376 61.3363 2.2 58.3V32.0982C2.18765 28.3443 4.31031 24.9101 7.67369 23.2429L7.95943 23.1C9.82803 22.174 11.007 20.2662 11 18.1806V17.6H17.6V18.1806C17.593 20.2662 18.7725 22.174 20.6406 23.1ZM16.5 8.8H12.1V6.6H16.5V8.8ZM31.9 8.8H29.7V7.7C29.7 5.87759 28.2224 4.4 26.4 4.4H8.8C8.19253 4.4 7.7 3.90747 7.7 3.3C7.7 2.69253 8.19253 2.2 8.8 2.2H26.4C29.4363 2.20376 31.8962 4.66372 31.9 7.7V8.8Z" fill="#D0AE5F"/>
</g>
<defs>
<clipPath id="clip0_5_35">
<rect width="66" height="66" fill="white"/>
</clipPath>
</defs>
</svg>
